# xmcd CD database file
#
# Track frame offsets:
#	150
#	15264
#	32002
#	46282
#	54880
#	68726
#	87020
#	107353
#	131897
#	152140
#	176314
#	198462
#	232310
#	269900
#
# Disc length: 3851 seconds
#
# Revision: 0
# Processed by: cddbd v1.5.2PL0 Copyright (c) Steve Scherf et al.
# Submitted via: CDex 1.51
#
DISCID=b60f090e
DTITLE=Adam Rudolph - Go: Organic Orchestra - Web Of Light
DYEAR=2002
DGENRE=Jazz
TTITLE0=Pulsar (part 1)
TTITLE1=Pulsar (part 2)
TTITLE2=Pulsar (part 3)
TTITLE3=Pulsar (part 4)
TTITLE4=Atmospheres Of Thought (part 1)
TTITLE5=Atmospheres Of Thought (part 2)
TTITLE6=Atmospheres Of Thought (part 3)
TTITLE7=Atmospheres Of Thought (part 4)
TTITLE8=Magnetic Fields Of Mind
TTITLE9=Pleiades (part 1)
TTITLE10=Pleiades (part 2)
TTITLE11=Interior Necessity
TTITLE12=Web Of Light
TTITLE13=Sirius Mysteries
EXTD=YEAR: 2002
EXTT0=
EXTT1=
EXTT2=
EXTT3=
EXTT4=
EXTT5=
EXTT6=
EXTT7=
EXTT8=
EXTT9=
EXTT10=
EXTT11=
EXTT12=
EXTT13=
PLAYORDER=
